<svg width="21" height="20" viewBox="0 0 21 20" fill="none" xmlns="http://www.w3.org/2000/svg">
<path d="M1.6187 13.6108C2.28505 14.2524 3.18881 14.6129 4.13117 14.6129H4.27612C5.17724 14.6129 5.90775 15.3434 5.90775 16.2445V18.5549L8.25732 16.8291C10.2176 15.3893 12.5872 14.6129 15.0195 14.6129C15.94 14.6129 16.6045 14.6129 16.6045 14.6129C17.5468 14.6129 18.4506 14.2524 19.1169 13.6108C19.7833 12.9692 20.1576 12.099 20.1576 11.1916V4.02815C20.1576 3.12079 19.7833 2.25059 19.1169 1.60899C18.4506 0.967383 17.5468 0.606934 16.6045 0.606934H4.13117C3.18881 0.606934 2.28505 0.967383 1.6187 1.60899C0.952353 2.25059 0.578003 3.12079 0.578003 4.02815V9.58092" stroke="#616161" stroke-width="1.14214" stroke-miterlimit="10"/>
</svg>
