<svg width="21" height="26" viewBox="0 0 21 26" fill="none" xmlns="http://www.w3.org/2000/svg">
<path d="M1.08093 24.9537H5.86706M20.2254 24.9537H10.6532" stroke="#616161" stroke-width="1.55549" stroke-linecap="round"/>
<path d="M12.9124 3.01288L13.7996 2.12564C15.2695 0.65563 17.6529 0.65563 19.123 2.12564C20.5929 3.59566 20.5929 5.97902 19.123 7.44903L18.2357 8.33627M12.9124 3.01288C12.9124 3.01288 13.0232 4.89824 14.6868 6.56181C16.3504 8.22537 18.2357 8.33627 18.2357 8.33627M12.9124 3.01288L4.75556 11.1696C4.20308 11.722 3.92684 11.9983 3.68928 12.303C3.40904 12.6622 3.16877 13.0509 2.97273 13.4623C2.80656 13.8109 2.68302 14.1816 2.43595 14.9229L1.38898 18.0638M18.2357 8.33627L14.1574 12.4146M1.38898 18.0638L1.13306 18.8315C1.01146 19.1963 1.1064 19.5984 1.37827 19.8703C1.65016 20.1422 2.0523 20.2372 2.41707 20.1155L3.18484 19.8597M1.38898 18.0638L3.18484 19.8597M10.079 16.493C9.52653 17.0455 9.25026 17.3217 8.94562 17.5593C8.58642 17.8395 8.19761 18.0798 7.78628 18.2758C7.43758 18.442 7.06697 18.5656 6.32574 18.8126L3.18484 19.8597" stroke="#616161" stroke-width="1.55549" stroke-linecap="round"/>
</svg>
