<svg width="31" height="31" viewBox="0 0 31 31" fill="none" xmlns="http://www.w3.org/2000/svg">
<path fill-rule="evenodd" clip-rule="evenodd" d="M22.3036 0.93182C24.4014 0.800706 26.4701 1.52912 28.0289 2.95681C29.4566 4.51561 30.1851 6.58431 30.0685 8.6967V22.3035C30.1996 24.4159 29.4566 26.4846 28.0435 28.0434C26.4847 29.471 24.4014 30.1995 22.3036 30.0683H8.69669C6.58428 30.1995 4.51557 29.471 2.95675 28.0434C1.52905 26.4846 0.800629 24.4159 0.931744 22.3035V8.6967C0.800629 6.58431 1.52905 4.51561 2.95675 2.95681C4.51557 1.52912 6.58428 0.800706 8.69669 0.93182H22.3036ZM14.0142 22.566L23.8187 12.7324C24.7074 11.8292 24.7074 10.3723 23.8187 9.48366L21.9248 7.58979C21.0216 6.68656 19.5647 6.68656 18.6615 7.58979L17.6854 8.58043C17.5397 8.72611 17.5397 8.97377 17.6854 9.11946C17.6854 9.11946 20.0018 11.4212 20.0455 11.4795C20.2058 11.6543 20.3077 11.8874 20.3077 12.1497C20.3077 12.6741 19.8852 13.1112 19.3462 13.1112C19.0986 13.1112 18.8655 13.0092 18.7052 12.8489L16.2723 10.4306C16.1557 10.3141 15.9518 10.3141 15.8352 10.4306L8.88612 17.3797C8.40537 17.8604 8.12857 18.5014 8.114 19.1861L8.02659 22.6388C8.02659 22.8282 8.08486 23.003 8.21598 23.1341C8.34709 23.2652 8.52191 23.3381 8.7113 23.3381H12.1349C12.8342 23.3381 13.5043 23.0613 14.0142 22.566Z" fill="#FF4D67"/>
</svg>
