<svg width="25" height="25" viewBox="0 0 25 25" fill="none" xmlns="http://www.w3.org/2000/svg">
<path d="M12.7723 5.95647L8.62809 8.30842C7.69303 8.83909 7.22551 9.10443 7.10365 9.55928C6.98179 10.0141 7.25404 10.4777 7.79854 11.4047L8.4687 12.5458C8.99862 13.448 9.26358 13.8992 9.70898 14.0184C10.1544 14.1378 10.6094 13.8796 11.5194 13.3631L15.7217 10.9781M6.9374 9.93789L2.85057 12.2573C1.8873 12.804 1.40566 13.0773 1.27918 13.5413C1.1527 14.0054 1.43078 14.4788 1.98692 15.4257C2.54306 16.3726 2.82114 16.846 3.29317 16.9703C3.7652 17.0947 4.24683 16.8213 5.2101 16.2746L9.29693 13.9552M23.0111 4.83299L21.8313 2.82431C21.2753 1.87742 20.9972 1.40398 20.5251 1.27964C20.0531 1.15532 19.5714 1.42866 18.6082 1.97536L14.4641 4.3273C13.529 4.85798 13.0614 5.12331 12.9396 5.57816C12.8177 6.03302 13.09 6.49655 13.6345 7.42362L14.8945 9.56898C15.4245 10.4712 15.6894 10.9223 16.1348 11.0417C16.5802 11.161 17.0352 10.9027 17.9451 10.3863L22.1475 8.00137C23.1107 7.45468 23.5924 7.18134 23.7189 6.71733C23.8453 6.25334 23.5672 5.77989 23.0111 4.83299Z" stroke="#616161" stroke-width="1.1" stroke-linejoin="round"/>
<path d="M12.499 13.0625L16.999 23.75" stroke="#616161" stroke-width="1.1" stroke-linecap="round"/>
<path d="M12.499 13.0625L7.99902 23.75" stroke="#616161" stroke-width="1.1" stroke-linecap="round"/>
</svg>
