<svg width="16" height="27" viewBox="0 0 16 27" fill="none" xmlns="http://www.w3.org/2000/svg">
<path d="M7.06576 2.88946C7.11781 2.46976 7.72616 2.46976 7.77822 2.88946L8.40984 7.98196C8.62141 9.68775 9.73144 11.1491 11.318 11.8105L13.8064 12.8479C14.1009 12.9706 14.1009 13.3878 13.8064 13.5105L11.318 14.5479C9.73144 15.2093 8.62141 16.6706 8.40984 18.3764L7.77822 23.4689C7.72616 23.8886 7.11781 23.8886 7.06576 23.4689L6.43414 18.3764C6.22257 16.6706 5.11254 15.2093 3.52602 14.5479L1.03757 13.5105C0.743116 13.3878 0.743116 12.9706 1.03757 12.8479L3.52602 11.8105C5.11254 11.1491 6.22257 9.68775 6.43414 7.98196L7.06576 2.88946Z" fill="#616161"/>
<path d="M12.5686 16.4671C12.6007 16.1841 13.0119 16.1841 13.0441 16.4671L13.2839 18.5766C13.3314 18.9944 13.5947 19.3566 13.9775 19.5306L15.3187 20.1406C15.5056 20.2256 15.5056 20.4912 15.3187 20.5762L13.9775 21.1862C13.5947 21.3602 13.3314 21.7224 13.2839 22.1402L13.0441 24.2497C13.0119 24.5327 12.6007 24.5327 12.5686 24.2497L12.3287 22.1402C12.2812 21.7224 12.0179 21.3602 11.6352 21.1862L10.294 20.5762C10.107 20.4912 10.107 20.2256 10.294 20.1406L11.6352 19.5306C12.0179 19.3566 12.2812 18.9944 12.3287 18.5766L12.5686 16.4671Z" fill="#616161"/>
</svg>
