<svg width="16" height="16" viewBox="0 0 16 16" fill="none" xmlns="http://www.w3.org/2000/svg">
<path d="M6.9729 10.6868L7.4729 10.6868L7.4729 10.6867L6.9729 10.6868ZM6.9729 12.9602L7.4729 12.9603V12.9602H6.9729ZM1.33325 12.9602L0.833252 12.9602L0.833252 12.9603L1.33325 12.9602ZM1.33325 10.6868L0.833252 10.6867V10.6868H1.33325ZM14.6663 10.6868L15.1663 10.6868L15.1663 10.6867L14.6663 10.6868ZM14.6663 12.9602L15.1663 12.9603V12.9602H14.6663ZM10.72 14.6663L10.72 15.1663H10.72V14.6663ZM9.02661 12.9602L8.52661 12.9602L8.52661 12.9603L9.02661 12.9602ZM9.02661 10.6868L8.52661 10.6867V10.6868H9.02661ZM10.72 8.97974L10.72 8.47974L10.72 8.47974L10.72 8.97974ZM6.9729 3.04028L7.4729 3.04028L7.4729 3.0402L6.9729 3.04028ZM6.9729 5.31372L7.4729 5.31385V5.31372H6.9729ZM1.33325 5.31372L0.833252 5.31372L0.833252 5.31385L1.33325 5.31372ZM1.33325 3.04028L0.833252 3.0402V3.04028H1.33325ZM14.6663 3.04028L15.1663 3.04028L15.1663 3.0402L14.6663 3.04028ZM14.6663 5.31372L15.1663 5.31385V5.31372H14.6663ZM10.72 7.01978L10.72 7.51978H10.72V7.01978ZM9.02661 5.31372L8.52661 5.31372L8.52661 5.31385L9.02661 5.31372ZM9.02661 3.04028L8.52661 3.0402V3.04028H9.02661ZM10.72 1.33325L10.72 0.833252L10.72 0.833252L10.72 1.33325ZM5.27954 8.97974V9.47974C5.93927 9.47974 6.47279 10.0123 6.4729 10.6868L6.9729 10.6868L7.4729 10.6867C7.47271 9.46813 6.49963 8.47974 5.27954 8.47974V8.97974ZM6.9729 10.6868H6.4729V12.9602H6.9729H7.4729V10.6868H6.9729ZM6.9729 12.9602L6.4729 12.9601C6.47272 13.6288 5.93825 14.1663 5.27954 14.1663V14.6663V15.1663C6.50051 15.1663 7.47257 14.1711 7.4729 12.9603L6.9729 12.9602ZM5.27954 14.6663V14.1663H3.02661V14.6663V15.1663H5.27954V14.6663ZM3.02661 14.6663V14.1663C2.3733 14.1663 1.83344 13.6275 1.83325 12.9601L1.33325 12.9602L0.833252 12.9603C0.83359 14.1724 1.81358 15.1663 3.02661 15.1663V14.6663ZM1.33325 12.9602H1.83325V10.6868H1.33325H0.833252V12.9602H1.33325ZM1.33325 10.6868L1.83325 10.6868C1.83336 10.0136 2.37227 9.47974 3.02661 9.47974V8.97974V8.47974C1.81447 8.47974 0.833448 9.46684 0.833252 10.6867L1.33325 10.6868ZM3.02661 8.97974V9.47974H5.27954V8.97974V8.47974H3.02661V8.97974ZM12.9729 8.97974V9.47974C13.6272 9.47974 14.1662 10.0136 14.1663 10.6868L14.6663 10.6868L15.1663 10.6867C15.1661 9.46684 14.185 8.47974 12.9729 8.47974V8.97974ZM14.6663 10.6868H14.1663V12.9602H14.6663H15.1663V10.6868H14.6663ZM14.6663 12.9602L14.1663 12.9601C14.1661 13.6275 13.6262 14.1663 12.9729 14.1663V14.6663V15.1663C14.1859 15.1663 15.1659 14.1724 15.1663 12.9603L14.6663 12.9602ZM12.9729 14.6663V14.1663H10.72V14.6663V15.1663H12.9729V14.6663ZM10.72 14.6663L10.72 14.1663C10.0613 14.1663 9.5268 13.6288 9.52661 12.9601L9.02661 12.9602L8.52661 12.9603C8.52695 14.1711 9.49901 15.1662 10.72 15.1663L10.72 14.6663ZM9.02661 12.9602H9.52661V10.6868H9.02661H8.52661V12.9602H9.02661ZM9.02661 10.6868L9.52661 10.6868C9.52672 10.0123 10.0602 9.47974 10.72 9.47974L10.72 8.97974L10.72 8.47974C9.49989 8.47975 8.52681 9.46813 8.52661 10.6867L9.02661 10.6868ZM10.72 8.97974V9.47974H12.9729V8.97974V8.47974H10.72V8.97974ZM5.27954 1.33325V1.83325C5.93812 1.83325 6.47279 2.3707 6.4729 3.04037L6.9729 3.04028L7.4729 3.0402C7.47269 1.8288 6.50076 0.833252 5.27954 0.833252V1.33325ZM6.9729 3.04028H6.4729V5.31372H6.9729H7.4729V3.04028H6.9729ZM6.9729 5.31372L6.4729 5.31359C6.47272 5.98773 5.93953 6.51978 5.27954 6.51978V7.01978V7.51978C6.49925 7.51978 7.47258 6.53261 7.4729 5.31385L6.9729 5.31372ZM5.27954 7.01978V6.51978H3.02661V7.01978V7.51978H5.27954V7.01978ZM3.02661 7.01978V6.51978C2.37202 6.51978 1.83343 5.98645 1.83325 5.31359L1.33325 5.31372L0.833252 5.31385C0.833575 6.53389 1.81485 7.51978 3.02661 7.51978V7.01978ZM1.33325 5.31372H1.83325V3.04028H1.33325H0.833252V5.31372H1.33325ZM1.33325 3.04028L1.83325 3.04037C1.83337 2.37199 2.37343 1.83325 3.02661 1.83325V1.33325V0.833252C1.81333 0.833252 0.833462 1.82752 0.833252 3.0402L1.33325 3.04028ZM3.02661 1.33325V1.83325H5.27954V1.33325V0.833252H3.02661V1.33325ZM12.9729 1.33325V1.83325C13.6261 1.83325 14.1661 2.37199 14.1663 3.04037L14.6663 3.04028L15.1663 3.0402C15.166 1.82752 14.1862 0.833252 12.9729 0.833252V1.33325ZM14.6663 3.04028H14.1663V5.31372H14.6663H15.1663V3.04028H14.6663ZM14.6663 5.31372L14.1663 5.31359C14.1661 5.98645 13.6275 6.51978 12.9729 6.51978V7.01978V7.51978C14.1847 7.51978 15.1659 6.53389 15.1663 5.31385L14.6663 5.31372ZM12.9729 7.01978V6.51978H10.72V7.01978V7.51978H12.9729V7.01978ZM10.72 7.01978L10.72 6.51978C10.06 6.51977 9.52679 5.98772 9.52661 5.31359L9.02661 5.31372L8.52661 5.31385C8.52693 6.53261 9.50028 7.51977 10.72 7.51978L10.72 7.01978ZM9.02661 5.31372H9.52661V3.04028H9.02661H8.52661V5.31372H9.02661ZM9.02661 3.04028L9.52661 3.04037C9.52673 2.37071 10.0614 1.83326 10.72 1.83325L10.72 1.33325L10.72 0.833252C9.49876 0.833262 8.52682 1.82881 8.52661 3.0402L9.02661 3.04028ZM10.72 1.33325V1.83325H12.9729V1.33325V0.833252H10.72V1.33325Z" fill="#FF4D67"/>
</svg>
