<svg width="32" height="32" viewBox="0 0 32 32" fill="none" xmlns="http://www.w3.org/2000/svg">
<path d="M16 1.37499C7.71803 1.37499 1.00403 8.08899 1.00403 16.371C1.00403 22.956 5.24903 28.551 11.152 30.566L11.258 30.597C12.008 30.738 12.283 30.275 12.283 29.876C12.283 29.52 12.271 28.576 12.264 27.327C8.09303 28.232 7.21303 25.315 7.21303 25.315C6.92503 24.39 6.33503 23.63 5.56003 23.131L5.54403 23.122C4.18603 22.192 5.64903 22.211 5.64903 22.211C6.63603 22.35 7.46303 22.929 7.93803 23.741L7.94603 23.756C8.50003 24.751 9.54603 25.413 10.747 25.413C11.323 25.413 11.863 25.261 12.329 24.994L12.313 25.002C12.385 24.211 12.734 23.513 13.262 22.997L13.263 22.996C9.93303 22.621 6.43203 21.331 6.43203 15.586C6.43203 15.559 6.43103 15.528 6.43103 15.497C6.43103 13.976 7.01803 12.592 7.97803 11.559L7.97503 11.563C7.77203 11.021 7.65403 10.395 7.65403 9.74199C7.65403 8.96499 7.82003 8.22599 8.11903 7.55999L8.10503 7.59399C8.10503 7.59399 9.36103 7.19199 12.229 9.13099C13.353 8.80999 14.644 8.62499 15.978 8.62499C17.312 8.62499 18.603 8.80999 19.827 9.15499L19.727 9.13099C22.576 7.19199 23.832 7.59399 23.832 7.59399C24.117 8.23599 24.283 8.98399 24.283 9.77099C24.283 10.413 24.173 11.029 23.97 11.601L23.982 11.563C24.935 12.595 25.52 13.979 25.52 15.5C25.52 15.531 25.52 15.561 25.519 15.591V15.586C25.519 21.347 22.014 22.615 18.677 22.984C19.309 23.631 19.699 24.516 19.699 25.493C19.699 25.586 19.695 25.679 19.688 25.771L19.689 25.759C19.689 27.766 19.67 29.378 19.67 29.865C19.67 30.259 19.932 30.727 20.701 30.577C26.729 28.548 30.993 22.948 30.993 16.351C30.993 8.07899 24.287 1.37399 16.016 1.37399C16.01 1.37399 16.003 1.37399 15.997 1.37399H15.998L16 1.37499Z" fill="#616161"/>
</svg>
