<svg width="21" height="22" viewBox="0 0 21 22" fill="none" xmlns="http://www.w3.org/2000/svg">
<g clip-path="url(#clip0_4808_3602)">
<path d="M7.53222 19.7714V16.7047C7.5322 15.9246 8.16812 15.2908 8.95601 15.2856H11.8421C12.6337 15.2856 13.2755 15.9209 13.2755 16.7047V19.7809C13.2753 20.4432 13.8093 20.9845 14.478 21H16.4021C18.3201 21 19.875 19.4607 19.875 17.5618M7.51297 19.7714C7.51297 20.4499 6.95735 21 6.27196 21H4.34791C2.42988 21 0.875 19.4607 0.875 17.5618V8.84736C0.882387 8.09967 1.23726 7.39702 1.83703 6.94256L8.38842 1.6853C9.5412 0.771567 11.1799 0.771567 12.3327 1.6853L18.913 6.93303C19.5105 7.38935 19.8648 8.09083 19.875 8.83784V12" stroke="#616161" stroke-width="1.3" stroke-linecap="round" stroke-linejoin="round"/>
</g>
<defs>
<clipPath id="clip0_4808_3602">
<rect width="21" height="22" fill="white"/>
</clipPath>
</defs>
</svg>
