<svg width="37" height="37" viewBox="0 0 37 37" fill="none" xmlns="http://www.w3.org/2000/svg">
<path d="M12.0558 10.9535C12.3751 10.9535 12.634 10.6947 12.634 10.3754C12.634 10.0561 12.3751 9.79729 12.0558 9.79729C11.7366 9.79729 11.4777 10.0561 11.4777 10.3754C11.4777 10.6947 11.7366 10.9535 12.0558 10.9535Z" fill="#616161"/>
<path d="M12.0558 13.0502V24.5973" stroke="#616161" stroke-width="0.770833" stroke-linecap="round" stroke-linejoin="round"/>
<path d="M25.5223 24.5973V17.1896C25.5202 16.0004 25.0469 14.8605 24.206 14.0196C23.3651 13.1787 22.2252 12.7054 21.036 12.7033C19.8455 12.7033 18.7036 13.1757 17.861 14.0169C17.0185 14.858 16.5441 15.999 16.5421 17.1896V24.5973" stroke="#616161" stroke-width="0.770833" stroke-linecap="round" stroke-linejoin="round"/>
<path d="M16.5421 17.1896V13.0502" stroke="#616161" stroke-width="0.770833" stroke-linecap="round" stroke-linejoin="round"/>
<path d="M31.2187 4.23959H5.78123C5.37235 4.23959 4.98023 4.40201 4.69111 4.69113C4.40199 4.98025 4.23956 5.37238 4.23956 5.78125V31.2188C4.23956 31.6276 4.40199 32.0198 4.69111 32.3089C4.98023 32.598 5.37235 32.7604 5.78123 32.7604H31.2187C31.6276 32.7604 32.0197 32.598 32.3089 32.3089C32.598 32.0198 32.7604 31.6276 32.7604 31.2188V5.78125C32.7604 5.37238 32.598 4.98025 32.3089 4.69113C32.0197 4.40201 31.6276 4.23959 31.2187 4.23959Z" stroke="#616161" stroke-width="0.770833" stroke-linecap="round" stroke-linejoin="round"/>
</svg>
