<svg width="16" height="21" viewBox="0 0 16 21" fill="none" xmlns="http://www.w3.org/2000/svg">
<path d="M7.78475 9.14286C10.0333 9.14286 11.8562 7.32002 11.8562 5.07143C11.8562 2.82284 10.0333 1 7.78475 1C5.53616 1 3.71332 2.82284 3.71332 5.07143C3.71332 7.32002 5.53616 9.14286 7.78475 9.14286Z" stroke="#616161" stroke-width="1.3"/>
<path d="M10.6929 19.6083C9.81144 19.8595 8.82547 20 7.78474 20C4.03709 20 0.999023 18.1772 0.999023 15.9286C0.999023 13.6801 4.03709 11.8572 7.78474 11.8572C11.5324 11.8572 14.5705 13.6801 14.5705 15.9286C14.5705 16.2801 14.4962 16.6212 14.3567 16.9465" stroke="#616161" stroke-width="1.3" stroke-linecap="round"/>
</svg>
