<svg width="100" height="30" viewBox="0 0 100 30" fill="none" xmlns="http://www.w3.org/2000/svg">
<path d="M7.7 15.9H4.45C1.68333 15.9 0.3 14.95 0.3 13.05V10.95C0.3 8.58333 1.63333 7.4 4.3 7.4H9.9C11.1667 7.4 11.8 7.66667 11.8 8.2C11.8 8.83333 11.1333 9.15 9.8 9.15H5.35C4.38333 9.15 3.9 9.7 3.9 10.8V13C3.9 13.8667 4.38333 14.3 5.35 14.3H8.2C10.7333 14.3 12.1 15.3333 12.3 17.4V19.4C12.3 21.8 10.9833 23 8.35 23H2.15C0.916667 23 0.3 22.6833 0.3 22.05C0.3 21.45 0.966667 21.15 2.3 21.15H7.7C8.66667 21.15 9.15 20.6167 9.15 19.55V17.3C9.15 16.3667 8.66667 15.9 7.7 15.9ZM25.3992 18.2V12.15C25.3992 10.15 24.6992 9.15 23.2992 9.15H22.6492C21.3159 9.15 20.6492 10.2167 20.6492 12.35V18.25C20.6492 20.2833 21.3326 21.3 22.6992 21.3H23.3992C24.7326 21.3 25.3992 20.2667 25.3992 18.2ZM16.9992 10.9C16.9992 9.8 17.3159 8.95 17.9492 8.35C18.6159 7.71667 19.6159 7.4 20.9492 7.4H25.1992C26.4326 7.4 27.3659 7.71667 27.9992 8.35C28.6659 8.95 28.9992 9.8 28.9992 10.9V19.5C28.9992 20.7667 28.6659 21.6667 27.9992 22.2C27.3659 22.7333 26.4326 23 25.1992 23H23.5992C21.6659 23 20.6992 23.8667 20.6992 25.6V26.5C20.6992 28.2333 20.0992 29.1 18.8992 29.1C17.6326 29.1 16.9992 28.3167 16.9992 26.75V10.9ZM40.3984 6.45H36.1484C34.8818 6.45 34.2484 6.15 34.2484 5.55C34.2484 4.98333 34.8484 4.7 36.0484 4.7H41.9984C44.4651 4.7 45.6984 5.96667 45.6984 8.5V19.4C45.6984 21.8 44.4651 23 41.9984 23H37.7984C35.0984 23 33.7484 22.0167 33.7484 20.05V13.55C33.7484 12.7167 34.0651 12.05 34.6984 11.55C35.3318 11.0167 36.3151 10.75 37.6484 10.75H40.2984C41.4984 10.75 42.0984 10.15 42.0984 8.95V8.45C42.0984 7.11667 41.5318 6.45 40.3984 6.45ZM37.2984 14.9V18.7C37.2984 20.4333 38.1151 21.3 39.7484 21.3C41.3151 21.3 42.0984 20.4333 42.0984 18.7V14.9C42.0984 13.2667 41.3151 12.45 39.7484 12.45C38.1151 12.45 37.2984 13.2667 37.2984 14.9ZM58.3977 9.15H56.8477C55.0143 9.15 54.0977 10.0167 54.0977 11.75V20.6C54.0977 22.3333 53.5143 23.2 52.3477 23.2C51.081 23.2 50.4477 22.4333 50.4477 20.9V10.85C50.4477 8.55 51.7977 7.4 54.4977 7.4H58.4477C59.7143 7.4 60.3477 7.7 60.3477 8.3C60.3477 8.86667 59.6977 9.15 58.3977 9.15ZM68.3465 13.65L69.9965 9.9C70.8298 8.13333 71.6298 7.25 72.3965 7.25C72.7965 7.25 73.0965 7.41667 73.2965 7.75C73.4965 8.08333 73.5965 8.43333 73.5965 8.8C73.5965 9.16667 73.5132 9.68333 73.3465 10.35L71.3965 14.1C70.9965 14.9 70.7965 15.6333 70.7965 16.3C70.7632 16.6667 70.7965 17.0167 70.8965 17.35C71.0298 17.65 71.1965 17.9667 71.3965 18.3L73.1465 21.45C73.3465 21.8833 73.4465 22.1833 73.4465 22.35C73.4465 22.65 73.3132 22.9 73.0465 23.1C72.7798 23.3333 72.4465 23.45 72.0465 23.45C71.3465 23.45 70.6632 22.95 69.9965 21.95L68.1965 18.55C67.6632 17.8833 67.2798 17.55 67.0465 17.55C66.8132 17.55 66.6965 17.85 66.6965 18.45V20.4C66.6965 22.3 66.1132 23.25 64.9465 23.25C63.7132 23.25 63.0965 22.45 63.0965 20.85V2.9C63.0965 2.16667 63.2132 1.61667 63.4465 1.25C63.7132 0.849999 64.1965 0.649999 64.8965 0.649999C66.0298 0.649999 66.6298 1.48333 66.6965 3.15V12.7C66.6965 13.9333 66.9632 14.55 67.4965 14.55C67.6632 14.55 67.9465 14.25 68.3465 13.65ZM80.2809 23.25C79.0809 23.25 78.4809 22.45 78.4809 20.85V2.9C78.4809 1.36667 79.0809 0.599999 80.2809 0.599999C81.4475 0.599999 82.0309 1.36667 82.0309 2.9V20.85C82.0309 22.45 81.4475 23.25 80.2809 23.25ZM92.3617 21.3H97.4117C98.6784 21.3 99.3117 21.6 99.3117 22.2C99.3117 22.7333 98.7117 23 97.5117 23H91.2617C88.6617 23 87.3617 21.7833 87.3617 19.35V8.3C87.3617 5.9 88.6951 4.7 91.3617 4.7H95.5117C96.7451 4.7 97.6784 4.96667 98.3117 5.5C98.9784 6 99.3117 6.73333 99.3117 7.7V13.45C99.3117 14.6833 98.9784 15.5667 98.3117 16.1C97.6784 16.6333 96.7451 16.9 95.5117 16.9H92.4617C91.4617 16.9 90.9617 17.65 90.9617 19.15C90.9617 20.5833 91.4284 21.3 92.3617 21.3ZM90.9617 8.9V12.65C90.9617 14.3167 91.7784 15.15 93.4117 15.15C94.9451 15.15 95.7117 14.3167 95.7117 12.65V8.9C95.7117 7.23333 94.9451 6.4 93.4117 6.4C91.7784 6.4 90.9617 7.23333 90.9617 8.9Z" fill="#B3BE31"/>
</svg>
