<svg width="24" height="24" viewBox="0 0 24 24" fill="none" xmlns="http://www.w3.org/2000/svg">
<path d="M0.731781 12.9498C-0.157263 12.6709 -0.00553503 11.3691 0.923831 11.3021L6.53887 10.8972C7.16007 10.8524 7.52063 10.1735 7.20984 9.63375L5.15294 6.06168C4.71897 5.30805 5.57015 4.46977 6.31707 4.91518L9.93678 7.07374C10.4166 7.35989 11.0371 7.10948 11.1839 6.57042L12.7353 0.873639C12.9717 0.00553682 14.2209 0.060028 14.3808 0.945417L15.2676 5.85524C15.3732 6.43989 16.0336 6.73553 16.54 6.42486L21.1422 3.60155C21.9221 3.12309 22.7996 4.05359 22.2763 4.80415L18.536 10.1685C18.2851 10.5283 18.3515 11.0202 18.6887 11.3006L23.4201 15.2352C24.027 15.7399 23.6711 16.7273 22.8817 16.7287L17.5949 16.7378C17.1062 16.7387 16.7203 17.153 16.754 17.6405L17.1218 22.9489C17.184 23.8465 15.9864 24.2058 15.5442 23.4222L12.619 18.2383C12.3518 17.7648 11.7131 17.6636 11.3126 18.0314L6.04401 22.8693C5.37629 23.4824 4.3432 22.7557 4.69465 21.9201L7.20596 15.9492C7.39889 15.4905 7.15526 14.9652 6.68044 14.8163L0.731781 12.9498Z" fill="#FEF4AA"/>
</svg>
