<svg width="44" height="52" viewBox="0 0 44 52" fill="none" xmlns="http://www.w3.org/2000/svg">
<path d="M40.6427 10.9624C42.3902 10.327 43.7276 12.5745 42.3355 13.8073L33.925 21.2552C32.9945 22.0792 33.2459 23.5925 34.3928 24.0714L41.9833 27.2408C43.5847 27.9095 43.2515 30.2701 41.5275 30.4694L33.1729 31.4351C32.0654 31.5631 31.3854 32.7121 31.8061 33.7446L36.2519 44.6559C36.9294 46.3186 34.8831 47.7465 33.5564 46.5367L26.1992 39.8283C25.3231 39.0295 23.9179 39.3613 23.4917 40.4677L19.6183 50.5217C18.9619 52.2256 16.4429 51.8141 16.3628 49.99L15.7898 36.9524C15.7514 36.078 15.05 35.3787 14.1755 35.3429L1.90578 34.8406C0.331796 34.7761 -0.300789 32.7794 0.948957 31.8204L9.31881 25.3977C10.0925 24.804 10.2021 23.6794 9.55761 22.9475L2.54006 14.9781C1.35351 13.6306 2.81659 11.6093 4.46731 12.3155L15.3881 16.9875C16.3857 17.4143 17.5208 16.8006 17.7099 15.7321L20.1978 1.67656C20.5131 -0.104785 23.0317 -0.204925 23.4874 1.54576L26.7438 14.0551C26.994 15.0162 28.0169 15.5535 28.9502 15.2141L40.6427 10.9624Z" fill="#FEF4AA"/>
</svg>
