<svg width="65" height="66" viewBox="0 0 65 66" fill="none" xmlns="http://www.w3.org/2000/svg">
<path d="M44.0437 1.2081C45.6338 -0.788723 48.8109 0.883445 48.0652 3.32466L43.5597 18.074C43.0612 19.7057 44.4406 21.2971 46.1266 21.0353L57.2849 19.3031C59.6391 18.9377 60.9416 21.9401 59.0663 23.4094L49.9784 30.5302C48.7737 31.4742 48.8014 33.3069 50.0342 34.2139L63.0623 43.7995C65.0476 45.2602 63.6757 48.3989 61.2552 47.934L47.8326 45.356C46.2343 45.049 44.8272 46.445 45.1215 48.0457L47.796 62.5927C48.2492 65.058 45.0054 66.3825 43.6036 64.3045L33.5849 49.4529C32.913 48.4569 31.5904 48.1411 30.541 48.7262L15.8174 56.9357C13.9286 57.9888 11.7564 56.1049 12.5318 54.0861L17.7248 40.5661C18.2048 39.3164 17.5268 37.9213 16.2475 37.5266L2.31831 33.2289C-0.0368739 32.5023 0.226568 29.087 2.66533 28.7301L18.7996 26.3692C20.2735 26.1535 21.1622 24.6212 20.6175 23.2347L13.4519 4.99683C12.5438 2.68543 15.4204 0.762313 17.2092 2.48498L29.9906 14.7942C30.9725 15.7398 32.5552 15.6354 33.4044 14.569L44.0437 1.2081Z" fill="#FEF4AA"/>
</svg>
