<svg width="25" height="24" viewBox="0 0 25 24" fill="none" xmlns="http://www.w3.org/2000/svg">
<g clip-path="url(#clip0_4737_3819)">
<path d="M24.125 12C24.125 5.7868 19.0882 0.75 12.875 0.75C6.6618 0.75 1.625 5.7868 1.625 12C1.625 18.2132 6.6618 23.25 12.875 23.25C19.0882 23.25 24.125 18.2132 24.125 12Z" fill="#FA5555" stroke="#FF4D67" stroke-width="1.5"/>
<mask id="mask0_4737_3819" style="mask-type:luminance" maskUnits="userSpaceOnUse" x="0" y="0" width="25" height="24">
<path d="M24.875 12C24.875 5.37258 19.5024 0 12.875 0C6.24758 0 0.875 5.37258 0.875 12C0.875 18.6274 6.24758 24 12.875 24C19.5024 24 24.875 18.6274 24.875 12Z" fill="white"/>
</mask>
<g mask="url(#mask0_4737_3819)">
<mask id="mask1_4737_3819" style="mask-type:luminance" maskUnits="userSpaceOnUse" x="-8" y="-8" width="41" height="40">
<path d="M32.875 -8H-7.125V32H32.875V-8Z" fill="white"/>
</mask>
<g mask="url(#mask1_4737_3819)">
<path d="M12.9364 6.10449V18.0185" stroke="white" stroke-width="1.5" stroke-linecap="round" stroke-linejoin="round"/>
<path d="M18.8993 12.0615H6.97302" stroke="white" stroke-width="1.5" stroke-linecap="round" stroke-linejoin="round"/>
<path fill-rule="evenodd" clip-rule="evenodd" d="M-3.29175 12.0616C-3.29175 -0.108606 0.76615 -4.1665 12.9363 -4.1665C25.1065 -4.1665 29.1644 -0.108606 29.1644 12.0616C29.1644 24.2318 25.1065 28.2897 12.9363 28.2897C0.76615 28.2897 -3.29175 24.2318 -3.29175 12.0616Z" stroke="#9E9E9E" stroke-width="71" stroke-linecap="round" stroke-linejoin="round"/>
</g>
</g>
</g>
<defs>
<clipPath id="clip0_4737_3819">
<rect width="25" height="24" fill="white"/>
</clipPath>
</defs>
</svg>
