<svg width="25" height="24" viewBox="0 0 25 24" fill="none" xmlns="http://www.w3.org/2000/svg">
<g clip-path="url(#clip0_10_524)">
<path d="M24.125 12C24.125 5.7868 19.0882 0.75 12.875 0.75C6.6618 0.75 1.625 5.7868 1.625 12C1.625 18.2132 6.6618 23.25 12.875 23.25C19.0882 23.25 24.125 18.2132 24.125 12Z" fill="#B3BE31" stroke="#B3BE31" stroke-width="1.5"/>
<path d="M13.2939 7.78027C13.6162 9.70349 14.9298 11.3024 16.7305 12L17.0967 12.127L18.3037 12.5L17.0967 12.873C15.2335 13.448 13.8233 14.9617 13.3711 16.8389L13.2939 17.2197L13 18.9736L12.7061 17.2197C12.3838 15.2965 11.0702 13.6976 9.26953 13L8.90332 12.873L7.69531 12.5L8.90332 12.127C10.7665 11.552 12.1767 10.0383 12.6289 8.16113L12.7061 7.78027L13 6.02539L13.2939 7.78027Z" fill="white" stroke="white"/>
</g>
<defs>
<clipPath id="clip0_10_524">
<rect width="25" height="24" fill="white"/>
</clipPath>
</defs>
</svg>
