<svg width="25" height="24" viewBox="0 0 25 24" fill="none" xmlns="http://www.w3.org/2000/svg">
<path d="M3.18879 17.7236C0.0277676 12.3746 1.80147 5.47582 7.15047 2.31479C12.4995 -0.846234 19.3982 0.927469 22.5592 6.27647C25.7203 11.6255 23.9466 18.5242 18.5976 21.6852C15.8255 23.3234 12.6373 23.6362 9.76875 22.813" stroke="#616161" stroke-width="1.3" stroke-linecap="round"/>
<path d="M13.0977 7.55469C13.4261 9.48071 14.7492 11.0774 16.5566 11.7676L16.9238 11.8936L17.2744 12L16.9238 12.1064C15.0543 12.6733 13.6356 14.1852 13.1768 16.0645L13.0977 16.4453L12.999 17.0234L12.9004 16.4453C12.5719 14.5193 11.2489 12.9226 9.44141 12.2324L9.07422 12.1064L8.72266 12L9.07422 11.8936C10.9437 11.3267 12.3625 9.81483 12.8213 7.93555L12.9004 7.55469L12.999 6.97559L13.0977 7.55469Z" stroke="#616161"/>
</svg>
